<?xml version="1.0" encoding="UTF-8"?>
<svg xmlns="http://www.w3.org/2000/svg" viewBox="0 0 1028 595.28">
  <defs>
    <style>
      .cls-1 {
        fill: #e7bb41;
      }

      .cls-1, .cls-2 {
        stroke: #e7bb41;
        stroke-linecap: round;
        stroke-miterlimit: 10;
        stroke-width: 14px;
      }

      .cls-3 {
        fill: #393e41;
      }

      .cls-2 {
        fill: none;
      }
    </style>
  </defs>
  <g id="Ebene_1" data-name="Ebene 1">
    <g>
      <path class="cls-3" d="M278.2,269.53h-82.8V101.43h83.8c24.94,0,49.63,11.47,49.63,38.16,0,17.96-12.22,29.68-26.44,33.92,20.95,4.74,35.66,19.2,35.66,42.15,0,33.42-25.19,53.87-59.86,53.87ZM274.71,122.63h-54.37v43.15h54.12c16.46,0,29.18-8.48,29.18-22.95s-12.72-20.2-28.93-20.2ZM273.22,185.48h-52.87v62.85h53.62c22.2,0,38.41-11.97,38.41-33.17,0-18.71-14.47-29.68-39.16-29.68Z"/>
      <path class="cls-3" d="M369.49,269.53V101.43h24.94v146.9h95.77v21.2h-120.71Z"/>
      <path class="cls-3" d="M635.36,269.53l-15.46-39.41h-77.81l-15.21,39.41h-26.69l69.58-170.84h22.95l69.58,170.84h-26.94ZM580.99,129.86l-31.42,80.56h62.85l-31.42-80.56Z"/>
      <path class="cls-3" d="M760.81,274.02c-52.38,0-92.53-34.67-92.53-89.79s39.16-87.29,91.53-87.29c14.22,0,28.93,1.75,42.15,5.24l-2.49,22.2c-11.22-3.49-22.95-5.24-35.91-5.24-43.4,0-69.09,24.19-69.09,64.85s28.68,68.09,70.08,68.09c10.97,0,23.44-1.75,33.92-5.99l2,21.95c-12.97,4.49-26.69,5.99-39.66,5.99Z"/>
      <path class="cls-3" d="M833.89,269.53V101.43h24.94v168.1h-24.94ZM941.13,269.53l-76.07-83.3v-1l76.82-83.8h31.42l-78.31,84.05,78.56,84.05h-32.42Z"/>
      <path class="cls-3" d="M437.83,499.38h-66.84v-168.1h67.09c56.86,0,85.55,35.91,85.55,82.05s-30.68,86.04-85.8,86.04ZM437.33,352.49h-41.4v125.7h41.4c37.91,0,60.36-26.94,60.36-64.6,0-35.67-22.2-61.1-60.36-61.1Z"/>
      <path class="cls-3" d="M664.54,499.38l-15.46-39.41h-77.81l-15.21,39.41h-26.69l69.58-170.84h22.95l69.58,170.84h-26.94ZM610.17,359.72l-31.43,80.56h62.85l-31.42-80.56Z"/>
      <path class="cls-3" d="M733.13,499.38h-29.18l42.15-65.84-60.36-102.26h28.68l46.64,79.31,49.13-79.31h29.18l-106.25,168.1Z"/>
      <path class="cls-3" d="M886.01,477.94h88.54v21.45h-128.94v-3.99l91.78-142.91h-89.29v-21.2h129.19v4.24l-91.28,142.41Z"/>
    </g>
  </g>
  <g id="Ebene_2" data-name="Ebene 2">
    <line class="cls-1" x1="203.25" y1="320.39" x2="131.53" y2="507.09"/>
  </g>
  <g id="Ebene_3" data-name="Ebene 3">
    <path class="cls-2" d="M243.42,488.5l81.84-73.42c2.03-1.82,2.05-5,.04-6.85l-81.88-75.01"/>
    <path class="cls-2" d="M110.27,333.44l-83.77,67.8c-2.04,1.65-2.3,4.65-.58,6.63l70.07,80.4"/>
  </g>
</svg>